<svg viewBox="0 0 128 128">
    <defs>
        <mask id="github-mask">
            <rect fill="white" width="100%" height="100%"/>
            <path fill="black" d="M99.84 64.88c0 15.83-10.26 29.26-24.49 34.01-1.81.35-2.46-.77-2.46-1.72 0-1.18.04-5.04.04-9.84 0-3.34-1.14-5.52-2.43-6.63 7.98-.89 16.37-3.92 16.37-17.69 0-3.91-1.4-7.11-3.69-9.62.37-.9 1.6-4.55-.35-9.48 0 0-3.01-.96-9.85 3.67-2.87-.79-5.93-1.19-8.98-1.2-3.04.01-6.11.41-8.97 1.2-6.85-4.63-9.86-3.67-9.86-3.67-1.95 4.93-.72 8.58-.35 9.48-2.29 2.51-3.69 5.71-3.69 9.62 0 13.74 8.37 16.81 16.33 17.71-1.02.9-1.95 2.48-2.28 4.8-2.04.91-7.23 2.5-10.43-2.98 0 0-1.89-3.44-5.49-3.7 0 0-3.5-.04-.24 2.18 0 0 2.35 1.11 3.98 5.25 0 0 2.1 6.39 12.07 4.23.02 2.99.05 5.81.05 6.67 0 .95-.66 2.05-2.45 1.72-14.24-4.74-24.51-18.17-24.51-34.01 0-19.79 16.05-35.84 35.84-35.84 19.79 0 35.84 16.05 35.84 35.84z"/>
            <path fill="black" d="M41.74 80.5c.08-.18-.06-.42-.32-.54-.26-.12-.54-.07-.62.11-.09.18.06.43.32.54.26.12.54.07.62-.11zM43.19 82.12c.18-.16.13-.49-.1-.74-.24-.25-.56-.33-.74-.17-.17.16-.13.5.11.75.22.25.56.32.73.16zM44.6 84.19c.22-.16.22-.54 0-.87-.22-.31-.57-.45-.8-.3-.22.16-.22.54 0 .86.22.32.58.46.8.31zm1.94 1.99c.21-.21.11-.63-.2-.91-.31-.3-.73-.36-.93-.14-.2.21-.11.62.2.91.31.3.73.36.93.14zm2.67 1.16c.08-.29-.18-.61-.59-.74-.41-.12-.81.01-.9.29-.08.29.19.61.59.74.41.12.81-.01.9-.29zm2.93.21c0-.29-.35-.53-.78-.52-.42.01-.76.25-.76.55 0 .29.35.53.78.52.43-.01.77-.25.76-.55zm2.73-.46c-.05-.29-.43-.47-.86-.39-.41.07-.72.37-.66.66.05.29.43.47.85.39.42-.08.72-.37.67-.66zm0 0"/>
        </mask>
    </defs>
    <circle cx="64" cy="64" r="64" mask="url(#github-mask)"/>
</svg>