<?xml version="1.0" encoding="UTF-8" standalone="no"?>
<!DOCTYPE svg PUBLIC "-//W3C//DTD SVG 20010904//EN"
              "http://www.w3.org/TR/2001/REC-SVG-20010904/DTD/svg10.dtd">

<svg xmlns="http://www.w3.org/2000/svg"
     width="1.42222in" height="1.42222in"
     viewBox="0 0 128 128">
  <path id="Imported Path"
        fill="none" stroke="black" stroke-width="1"
        d="M 64.02,43.51
           C 52.66,43.51 43.50,52.65 43.50,63.98
             43.50,75.32 52.66,84.46 64.02,84.46
             75.38,84.46 84.54,75.32 84.54,63.98
             84.54,52.65 75.38,43.51 64.02,43.51 Z
           M 64.02,77.29
           C 56.68,77.29 50.68,71.33 50.68,63.98
             50.68,56.64 56.66,50.67 64.02,50.67
             71.38,50.67 77.36,56.64 77.36,63.98
             77.36,71.33 71.36,77.29 64.02,77.29
             64.02,77.29 64.02,77.29 64.02,77.29 Z
           M 90.16,42.67
           C 90.16,45.33 88.02,47.44 85.38,47.44
             82.71,47.44 80.59,45.31 80.59,42.67
             80.59,40.03 82.73,37.89 85.38,37.89
             88.02,37.89 90.16,40.03 90.16,42.67 Z
           M 103.75,47.51
           C 103.44,41.12 101.98,35.45 97.29,30.78
             92.61,26.11 86.93,24.65 80.52,24.32
             73.91,23.96 54.11,23.96 47.50,24.32
             41.11,24.63 35.43,26.09 30.73,30.76
             26.04,35.43 24.59,41.10 24.27,47.49
             23.89,54.09 23.89,73.86 24.27,80.45
             24.57,86.85 26.04,92.52 30.73,97.19
             35.43,101.86 41.09,103.32 47.50,103.64
             54.11,104.01 73.91,104.01 80.52,103.64
             86.93,103.33 92.61,101.88 97.29,97.19
             101.96,92.52 103.43,86.85 103.75,80.45
             104.13,73.86 104.13,54.11 103.75,47.51
             103.75,47.51 103.75,47.51 103.75,47.51 Z
           M 95.21,87.53
           C 93.82,91.02 91.13,93.71 87.61,95.12
             82.34,97.20 69.84,96.72 64.02,96.72
             58.19,96.72 45.68,97.19 40.43,95.12
             36.93,93.72 34.23,91.04 32.82,87.53
             30.73,82.27 31.21,69.79 31.21,63.98
             31.21,58.17 30.75,45.68 32.82,40.44
             34.21,36.94 36.91,34.26 40.43,32.84
             45.69,30.76 58.19,31.24 64.02,31.24
             69.84,31.24 82.36,30.78 87.61,32.84
             91.11,34.24 93.81,36.92 95.21,40.44
             97.31,45.69 96.82,58.17 96.82,63.98
             96.82,69.79 97.31,82.29 95.21,87.53 Z" />
</svg>
